<?xml version="1.0" encoding="UTF-8" standalone="no"?>
<!DOCTYPE svg PUBLIC "-//W3C//DTD SVG 1.1//EN" "http://www.w3.org/Graphics/SVG/1.1/DTD/svg11.dtd">
<svg width="100%" height="100%" viewBox="0 0 3600 3600" version="1.1" xmlns="http://www.w3.org/2000/svg" xmlns:xlink="http://www.w3.org/1999/xlink" xml:space="preserve" xmlns:serif="http://www.serif.com/" style="fill-rule:evenodd;clip-rule:evenodd;stroke-linejoin:round;stroke-miterlimit:2;">
    <rect x="0" y="0" width="3600" height="3600" style="fill:rgb(56,143,67);"/>
    <g transform="matrix(1.02857,0,0,1.02857,-51.4286,56.5714)">
        <g transform="matrix(0.645276,0,0,2.35142,865.366,1410.12)">
            <path d="M3075.64,-191.78C3075.64,-237.353 2940.81,-274.352 2774.74,-274.352L122.114,-274.352C-43.957,-274.352 -178.785,-237.353 -178.785,-191.78L-178.785,344.779C-178.785,390.352 -43.957,427.352 122.114,427.352L2774.74,427.352C2940.81,427.352 3075.64,390.352 3075.64,344.779L3075.64,-191.78Z" style="fill-opacity:0.2;"/>
        </g>
        <g transform="matrix(0.645276,0,0,2.22316,865.366,1674.93)">
            <path d="M3075.64,-189.691C3075.64,-236.417 2944.94,-274.352 2783.96,-274.352L112.897,-274.352C-48.087,-274.352 -178.785,-236.417 -178.785,-189.691L-178.785,342.691C-178.785,389.417 -48.087,427.352 112.897,427.352L2783.96,427.352C2944.94,427.352 3075.64,389.417 3075.64,342.691L3075.64,-189.691Z" style="fill:white;"/>
        </g>
        <g transform="matrix(0.536668,0,0,0.536668,1003.84,757.968)">
            <path d="M581.665,2325.82L825.856,2296.19C833.636,2358.44 854.584,2406.02 888.699,2438.94C922.814,2471.86 964.111,2488.31 1012.59,2488.31C1064.66,2488.31 1108.5,2468.56 1144.11,2429.06C1179.72,2389.56 1197.53,2336.29 1197.53,2269.26C1197.53,2205.82 1180.47,2155.54 1146.36,2118.44C1112.24,2081.33 1070.64,2062.78 1021.57,2062.78C989.248,2062.78 950.644,2069.06 905.756,2081.63L933.587,1876.04C1001.82,1877.84 1053.89,1863.03 1089.8,1831.6C1125.71,1800.18 1143.66,1758.44 1143.66,1706.37C1143.66,1662.08 1130.5,1626.77 1104.16,1600.43C1077.83,1574.1 1042.81,1560.93 999.123,1560.93C956.031,1560.93 919.223,1575.89 888.699,1605.82C858.175,1635.74 839.621,1679.43 833.038,1736.89L600.518,1697.39C616.678,1617.79 641.067,1554.2 673.686,1506.61C706.304,1459.03 751.791,1421.63 810.145,1394.39C868.499,1367.16 933.886,1353.55 1006.31,1353.55C1130.2,1353.55 1229.55,1393.05 1304.36,1472.05C1366.01,1536.69 1396.83,1609.71 1396.83,1691.1C1396.83,1806.62 1333.69,1898.79 1207.4,1967.61C1282.82,1983.77 1343.11,2019.98 1388.3,2076.24C1433.49,2132.5 1456.08,2200.43 1456.08,2280.03C1456.08,2395.55 1413.89,2494 1329.5,2575.4C1245.11,2656.79 1140.07,2697.49 1014.38,2697.49C895.282,2697.49 796.529,2663.23 718.125,2594.7C639.72,2526.17 594.234,2436.54 581.665,2325.82Z" style="fill:rgb(56,143,67);fill-rule:nonzero;"/>
            <path d="M2258.68,2675.05L2006.41,2675.05L2006.41,1724.32C1914.24,1810.51 1805.61,1874.25 1680.52,1915.54L1680.52,1686.62C1746.36,1665.07 1817.88,1624.22 1895.09,1564.07C1972.29,1503.92 2025.26,1433.75 2053.99,1353.55L2258.68,1353.55L2258.68,2675.05Z" style="fill:rgb(56,143,67);fill-rule:nonzero;"/>
        </g>
    </g>
</svg>
