<?xml version="1.0" encoding="UTF-8" standalone="no"?>
<!DOCTYPE svg PUBLIC "-//W3C//DTD SVG 1.1//EN" "http://www.w3.org/Graphics/SVG/1.1/DTD/svg11.dtd">
<svg width="100%" height="100%" viewBox="0 0 1405 1405" version="1.1" xmlns="http://www.w3.org/2000/svg" xmlns:xlink="http://www.w3.org/1999/xlink" xml:space="preserve" xmlns:serif="http://www.serif.com/" style="fill-rule:evenodd;clip-rule:evenodd;stroke-linejoin:round;stroke-miterlimit:2;">
    <g transform="matrix(0.699982,0,0,0.699982,-172.71,-4.07883)">
        <path d="M1573.22,1138.88C1540.97,1138.88 1514.74,1112.62 1514.74,1080.37C1514.74,1048.12 1540.97,1021.89 1573.22,1021.89C1605.48,1021.89 1631.71,1048.12 1631.71,1080.37C1631.71,1112.63 1605.48,1138.88 1573.22,1138.88M926.779,1138.88C894.531,1138.88 868.298,1112.62 868.298,1080.37C868.298,1048.12 894.525,1021.89 926.779,1021.89C959.028,1021.89 985.261,1048.12 985.261,1080.37C985.261,1112.63 959.033,1138.88 926.779,1138.88M1594.2,786.575L1711.09,584.133C1717.74,572.578 1713.73,557.595 1702.18,550.916C1690.63,544.264 1675.65,548.278 1668.97,559.817L1550.62,764.817C1460.11,723.517 1358.46,700.507 1250,700.507C1141.54,700.507 1039.89,723.517 949.388,764.817L831.034,559.817C824.353,548.278 809.372,544.264 797.816,550.916C786.268,557.589 782.251,572.579 788.915,584.133L905.803,786.575C705.09,895.739 567.815,1098.94 547.732,1339L1952.27,1339C1932.17,1098.94 1794.89,895.739 1594.2,786.57" style="fill:rgb(61,219,133);fill-rule:nonzero;"/>
    </g>
</svg>
