<svg width="100%" height="100%" viewBox="0 0 100 100" version="1.1" xmlns="http://www.w3.org/2000/svg" xml:space="preserve" style="fill-rule:evenodd;clip-rule:evenodd;stroke-linejoin:round;stroke-miterlimit:2;">
    <rect x="0" y="0" width="100" height="100" style="fill:white;"/>
    <path d="M100,0L0,0L0,100L100,100L100,0ZM78.159,78.158L66.306,78.158L66.306,59.589C66.306,55.162 66.226,49.461 60.14,49.461C53.966,49.461 53.021,54.284 53.021,59.264L53.021,78.156L41.168,78.156L41.168,39.982L52.547,39.982L52.547,45.2L52.7,45.2C55.018,41.238 59.342,38.863 63.929,39.034C75.943,39.034 78.159,46.937 78.159,57.217L78.159,78.158ZM33.719,78.156L21.854,78.156L21.854,39.982L33.721,39.982L33.719,78.156ZM27.793,34.763C27.792,34.763 27.792,34.763 27.791,34.763C24.017,34.763 20.912,31.658 20.912,27.884C20.912,24.11 24.017,21.004 27.791,21.004C31.565,21.004 34.671,24.11 34.671,27.884C34.671,31.657 31.566,34.762 27.793,34.763Z" style="fill:rgb(10,102,194);fill-rule:nonzero;"/>
</svg>
